<svg xmlns="http://www.w3.org/2000/svg" viewBox="0 0 100 100">
<rect width="100" height="100" rx="22" fill="#060709"/>
<g><circle cx="53.96" cy="60.92" r="1.10" fill="#8bbf87" opacity="0.32"/><circle cx="41.47" cy="55.25" r="1.14" fill="#e8e4d8" opacity="0.33"/><circle cx="38.91" cy="40.09" r="1.15" fill="#4ac8d8" opacity="0.34"/><circle cx="60.83" cy="51.77" r="1.15" fill="#8bbf87" opacity="0.34"/><circle cx="49.13" cy="47.24" r="1.16" fill="#ffb442" opacity="0.34"/><circle cx="54.94" cy="37.09" r="1.17" fill="#a878ff" opacity="0.34"/><circle cx="46.67" cy="30.05" r="1.28" fill="#4ac8d8" opacity="0.37"/><circle cx="64.89" cy="42.10" r="1.29" fill="#a878ff" opacity="0.37"/><circle cx="34.63" cy="61.28" r="1.37" fill="#4ac8d8" opacity="0.39"/><circle cx="32.91" cy="48.33" r="1.38" fill="#4ac8d8" opacity="0.39"/><circle cx="46.40" cy="65.88" r="1.39" fill="#39ff7a" opacity="0.39"/><circle cx="65.04" cy="62.79" r="1.40" fill="#d9c566" opacity="0.40"/><circle cx="33.90" cy="32.48" r="1.41" fill="#4ac8d8" opacity="0.40"/><circle cx="65.11" cy="31.32" r="1.47" fill="#a878ff" opacity="0.41"/><circle cx="23.54" cy="39.19" r="1.48" fill="#e8b979" opacity="0.42"/><circle cx="55.71" cy="25.20" r="1.48" fill="#8bbf87" opacity="0.42"/><circle cx="69.69" cy="53.89" r="1.49" fill="#d9c566" opacity="0.42"/><circle cx="57.43" cy="69.12" r="1.51" fill="#8bbf87" opacity="0.42"/><circle cx="39.18" cy="73.02" r="1.52" fill="#7ab8c4" opacity="0.43"/><circle cx="74.27" cy="44.50" r="1.54" fill="#7ab8c4" opacity="0.43"/><circle cx="25.61" cy="53.93" r="1.55" fill="#ffb442" opacity="0.43"/><circle cx="50.73" cy="77.77" r="1.58" fill="#8bbf87" opacity="0.44"/><circle cx="34.52" cy="23.32" r="1.65" fill="#d9c566" opacity="0.46"/><circle cx="30.09" cy="65.28" r="1.67" fill="#a878ff" opacity="0.46"/><circle cx="68.21" cy="72.70" r="1.69" fill="#e8e4d8" opacity="0.47"/><circle cx="74.58" cy="64.12" r="1.70" fill="#a878ff" opacity="0.47"/><circle cx="45.95" cy="24.57" r="1.71" fill="#8bbf87" opacity="0.47"/><circle cx="72.36" cy="35.19" r="1.72" fill="#b49bd1" opacity="0.47"/><circle cx="81.25" cy="55.26" r="1.73" fill="#a878ff" opacity="0.48"/><circle cx="16.12" cy="44.96" r="1.74" fill="#7ab8c4" opacity="0.48"/><circle cx="23.18" cy="30.50" r="1.79" fill="#b49bd1" opacity="0.49"/><circle cx="33.60" cy="79.10" r="1.80" fill="#b49bd1" opacity="0.49"/><circle cx="67.04" cy="24.02" r="1.81" fill="#e8b979" opacity="0.50"/><circle cx="19.93" cy="58.75" r="1.83" fill="#8bbf87" opacity="0.50"/><circle cx="50.00" cy="14.46" r="1.83" fill="#e8e4d8" opacity="0.50"/><circle cx="84.67" cy="44.58" r="1.84" fill="#7ab8c4" opacity="0.50"/><circle cx="59.60" cy="77.16" r="1.87" fill="#8bbf87" opacity="0.51"/><circle cx="44.98" cy="81.53" r="1.90" fill="#7ab8c4" opacity="0.52"/><circle cx="26.98" cy="69.13" r="1.98" fill="#e8b979" opacity="0.54"/><circle cx="60.16" cy="19.08" r="2.04" fill="#39ff7a" opacity="0.55"/><circle cx="77.80" cy="36.07" r="2.05" fill="#e8a5a5" opacity="0.55"/><circle cx="29.80" cy="24.86" r="2.06" fill="#e8e4d8" opacity="0.56"/><circle cx="74.62" cy="73.25" r="2.06" fill="#4ac8d8" opacity="0.56"/><circle cx="48.40" cy="12.58" r="2.07" fill="#8bbf87" opacity="0.56"/><circle cx="75.08" cy="24.31" r="2.09" fill="#e8e4d8" opacity="0.56"/><circle cx="38.39" cy="17.76" r="2.09" fill="#d9c566" opacity="0.56"/><circle cx="79.24" cy="63.67" r="2.11" fill="#e8e4d8" opacity="0.57"/><circle cx="21.20" cy="37.59" r="2.13" fill="#b49bd1" opacity="0.58"/><circle cx="53.11" cy="82.23" r="2.14" fill="#7ab8c4" opacity="0.58"/><circle cx="67.15" cy="82.09" r="2.15" fill="#8bbf87" opacity="0.58"/><circle cx="18.15" cy="49.78" r="2.15" fill="#e8a5a5" opacity="0.58"/><circle cx="17.86" cy="62.80" r="2.18" fill="#e8a5a5" opacity="0.59"/><circle cx="82.49" cy="54.45" r="2.21" fill="#4ac8d8" opacity="0.59"/><circle cx="34.24" cy="80.27" r="2.23" fill="#e8b979" opacity="0.60"/><circle cx="25.54" cy="74.31" r="2.31" fill="#8bbf87" opacity="0.62"/><circle cx="86.20" cy="44.39" r="2.34" fill="#7ab8c4" opacity="0.62"/><circle cx="42.89" cy="87.17" r="2.35" fill="#b49bd1" opacity="0.63"/><circle cx="21.16" cy="26.91" r="2.37" fill="#e8e4d8" opacity="0.63"/><circle cx="67.25" cy="16.25" r="2.39" fill="#39ff7a" opacity="0.64"/><circle cx="55.18" cy="14.65" r="2.41" fill="#7ab8c4" opacity="0.64"/><circle cx="84.87" cy="33.24" r="2.46" fill="#b49bd1" opacity="0.65"/><circle cx="15.65" cy="40.38" r="2.46" fill="#e8a5a5" opacity="0.65"/><circle cx="40.19" cy="17.63" r="2.47" fill="#e8e4d8" opacity="0.66"/><circle cx="79.01" cy="75.81" r="2.48" fill="#a878ff" opacity="0.66"/><circle cx="15.01" cy="53.72" r="2.49" fill="#e8e4d8" opacity="0.66"/><circle cx="77.39" cy="23.94" r="2.50" fill="#d9c566" opacity="0.67"/><circle cx="55.82" cy="82.63" r="2.51" fill="#b49bd1" opacity="0.67"/><circle cx="30.23" cy="20.99" r="2.52" fill="#e8e4d8" opacity="0.67"/><circle cx="20.50" cy="66.12" r="2.53" fill="#ffb442" opacity="0.67"/><circle cx="81.91" cy="64.04" r="2.54" fill="#8bbf87" opacity="0.67"/><circle cx="66.47" cy="81.12" r="2.55" fill="#39ff7a" opacity="0.68"/><circle cx="32.76" cy="76.07" r="2.65" fill="#e8e4d8" opacity="0.70"/><circle cx="82.12" cy="53.85" r="2.65" fill="#7ab8c4" opacity="0.70"/><circle cx="42.79" cy="81.84" r="2.72" fill="#8bbf87" opacity="0.72"/><circle cx="62.38" cy="21.86" r="2.74" fill="#ffb442" opacity="0.72"/><circle cx="19.22" cy="30.56" r="2.76" fill="#b49bd1" opacity="0.73"/><circle cx="49.69" cy="13.85" r="2.77" fill="#39ff7a" opacity="0.73"/><circle cx="27.19" cy="69.40" r="2.81" fill="#8bbf87" opacity="0.74"/><circle cx="84.17" cy="43.79" r="2.82" fill="#e8b979" opacity="0.74"/><circle cx="19.07" cy="57.58" r="2.82" fill="#39ff7a" opacity="0.74"/><circle cx="71.44" cy="72.68" r="2.82" fill="#a878ff" opacity="0.74"/><circle cx="13.98" cy="43.94" r="2.86" fill="#4ac8d8" opacity="0.75"/><circle cx="56.21" cy="81.24" r="2.86" fill="#e8b979" opacity="0.75"/><circle cx="50.00" cy="79.26" r="2.87" fill="#d9c566" opacity="0.75"/><circle cx="71.13" cy="26.67" r="2.88" fill="#4ac8d8" opacity="0.76"/><circle cx="30.05" cy="24.70" r="2.90" fill="#d9c566" opacity="0.76"/><circle cx="79.13" cy="34.14" r="2.90" fill="#b49bd1" opacity="0.76"/><circle cx="39.62" cy="17.18" r="2.95" fill="#e8b979" opacity="0.77"/><circle cx="81.30" cy="65.68" r="3.01" fill="#39ff7a" opacity="0.79"/><circle cx="55.70" cy="21.96" r="3.04" fill="#e8e4d8" opacity="0.79"/><circle cx="35.72" cy="79.43" r="3.06" fill="#e8b979" opacity="0.80"/><circle cx="64.48" cy="77.11" r="3.09" fill="#39ff7a" opacity="0.81"/><circle cx="22.94" cy="35.48" r="3.11" fill="#a878ff" opacity="0.81"/><circle cx="80.40" cy="54.18" r="3.12" fill="#ffb442" opacity="0.82"/><circle cx="21.71" cy="48.95" r="3.13" fill="#ffb442" opacity="0.82"/><circle cx="45.67" cy="25.81" r="3.17" fill="#4ac8d8" opacity="0.83"/><circle cx="21.19" cy="64.19" r="3.18" fill="#ffb442" opacity="0.83"/><circle cx="52.41" cy="74.47" r="3.19" fill="#b49bd1" opacity="0.83"/><circle cx="34.61" cy="29.91" r="3.19" fill="#e8e4d8" opacity="0.83"/><circle cx="70.03" cy="65.09" r="3.22" fill="#7ab8c4" opacity="0.84"/><circle cx="33.11" cy="69.21" r="3.24" fill="#ffb442" opacity="0.84"/><circle cx="63.88" cy="26.55" r="3.25" fill="#39ff7a" opacity="0.85"/><circle cx="78.58" cy="43.63" r="3.28" fill="#8bbf87" opacity="0.85"/><circle cx="29.23" cy="54.16" r="3.32" fill="#ffb442" opacity="0.86"/><circle cx="72.49" cy="33.80" r="3.34" fill="#a878ff" opacity="0.87"/><circle cx="29.78" cy="41.08" r="3.35" fill="#b49bd1" opacity="0.87"/><circle cx="44.29" cy="70.91" r="3.39" fill="#39ff7a" opacity="0.88"/><circle cx="70.15" cy="55.17" r="3.39" fill="#a878ff" opacity="0.88"/><circle cx="52.33" cy="30.39" r="3.40" fill="#d9c566" opacity="0.88"/><circle cx="65.05" cy="46.01" r="3.41" fill="#d9c566" opacity="0.89"/><circle cx="59.18" cy="38.03" r="3.43" fill="#d9c566" opacity="0.89"/><circle cx="62.17" cy="70.81" r="3.46" fill="#8bbf87" opacity="0.90"/><circle cx="50.41" cy="62.49" r="3.46" fill="#e8b979" opacity="0.90"/><circle cx="36.24" cy="61.28" r="3.47" fill="#7ab8c4" opacity="0.90"/><circle cx="59.59" cy="57.94" r="3.50" fill="#4ac8d8" opacity="0.91"/><circle cx="47.94" cy="41.62" r="3.53" fill="#7ab8c4" opacity="0.92"/><circle cx="39.60" cy="33.24" r="3.55" fill="#e8b979" opacity="0.92"/><circle cx="54.74" cy="49.06" r="3.60" fill="#ffb442" opacity="0.93"/><circle cx="35.02" cy="46.56" r="3.69" fill="#e8a5a5" opacity="0.95"/><circle cx="43.80" cy="54.59" r="3.69" fill="#a878ff" opacity="0.95"/></g>
</svg>
