<svg xmlns="http://www.w3.org/2000/svg" viewBox="0 0 1200 630">
<rect width="1200" height="630" fill="#060709"/>
<g transform="translate(120.0, 105.0) scale(4.2)"><circle cx="53.81" cy="54.21" r="1.05" fill="#e8a5a5" opacity="0.31"/><circle cx="41.94" cy="49.53" r="1.13" fill="#e8a5a5" opacity="0.33"/><circle cx="60.14" cy="46.53" r="1.15" fill="#e8b979" opacity="0.34"/><circle cx="39.85" cy="36.42" r="1.18" fill="#4ac8d8" opacity="0.34"/><circle cx="49.20" cy="42.99" r="1.18" fill="#8bbf87" opacity="0.34"/><circle cx="54.49" cy="34.07" r="1.22" fill="#4ac8d8" opacity="0.35"/><circle cx="46.42" cy="59.29" r="1.29" fill="#d9c566" opacity="0.37"/><circle cx="35.04" cy="54.85" r="1.30" fill="#e8b979" opacity="0.37"/><circle cx="63.67" cy="38.45" r="1.31" fill="#b49bd1" opacity="0.38"/><circle cx="64.75" cy="56.21" r="1.32" fill="#a878ff" opacity="0.38"/><circle cx="50.80" cy="69.56" r="1.32" fill="#8bbf87" opacity="0.38"/><circle cx="46.99" cy="28.09" r="1.33" fill="#b49bd1" opacity="0.38"/><circle cx="38.63" cy="65.16" r="1.33" fill="#a878ff" opacity="0.38"/><circle cx="57.63" cy="62.18" r="1.36" fill="#7ab8c4" opacity="0.39"/><circle cx="34.07" cy="43.93" r="1.38" fill="#b49bd1" opacity="0.39"/><circle cx="35.40" cy="30.11" r="1.44" fill="#b49bd1" opacity="0.41"/><circle cx="68.72" cy="48.69" r="1.45" fill="#e8b979" opacity="0.41"/><circle cx="25.63" cy="35.25" r="1.47" fill="#8bbf87" opacity="0.41"/><circle cx="69.45" cy="64.67" r="1.49" fill="#e8e4d8" opacity="0.42"/><circle cx="63.67" cy="29.28" r="1.50" fill="#7ab8c4" opacity="0.42"/><circle cx="31.15" cy="70.25" r="1.50" fill="#8bbf87" opacity="0.42"/><circle cx="26.71" cy="48.33" r="1.50" fill="#7ab8c4" opacity="0.42"/><circle cx="43.66" cy="73.62" r="1.51" fill="#e8b979" opacity="0.42"/><circle cx="55.12" cy="24.09" r="1.51" fill="#39ff7a" opacity="0.42"/><circle cx="72.54" cy="40.29" r="1.52" fill="#e8a5a5" opacity="0.43"/><circle cx="29.81" cy="58.45" r="1.55" fill="#e8e4d8" opacity="0.43"/><circle cx="61.38" cy="69.61" r="1.57" fill="#4ac8d8" opacity="0.44"/><circle cx="74.74" cy="56.95" r="1.58" fill="#8bbf87" opacity="0.44"/><circle cx="54.65" cy="75.24" r="1.65" fill="#e8e4d8" opacity="0.46"/><circle cx="80.25" cy="48.76" r="1.65" fill="#d9c566" opacity="0.46"/><circle cx="36.08" cy="22.17" r="1.66" fill="#e8e4d8" opacity="0.46"/><circle cx="18.16" cy="39.68" r="1.69" fill="#b49bd1" opacity="0.47"/><circle cx="36.95" cy="79.64" r="1.70" fill="#7ab8c4" opacity="0.47"/><circle cx="70.41" cy="32.66" r="1.72" fill="#8bbf87" opacity="0.47"/><circle cx="20.33" cy="51.91" r="1.73" fill="#e8a5a5" opacity="0.48"/><circle cx="46.37" cy="24.07" r="1.73" fill="#e8a5a5" opacity="0.48"/><circle cx="72.78" cy="73.02" r="1.75" fill="#4ac8d8" opacity="0.48"/><circle cx="25.55" cy="27.93" r="1.77" fill="#e8b979" opacity="0.49"/><circle cx="82.65" cy="39.31" r="1.79" fill="#8bbf87" opacity="0.49"/><circle cx="25.10" cy="61.50" r="1.80" fill="#7ab8c4" opacity="0.49"/><circle cx="48.35" cy="80.55" r="1.81" fill="#b49bd1" opacity="0.50"/><circle cx="65.34" cy="22.98" r="1.81" fill="#e8e4d8" opacity="0.50"/><circle cx="50.00" cy="14.46" r="1.83" fill="#39ff7a" opacity="0.50"/><circle cx="77.81" cy="64.54" r="1.83" fill="#7ab8c4" opacity="0.50"/><circle cx="28.20" cy="71.79" r="1.85" fill="#b49bd1" opacity="0.51"/><circle cx="63.55" cy="76.49" r="1.86" fill="#e8a5a5" opacity="0.51"/><circle cx="80.42" cy="56.08" r="1.97" fill="#e8e4d8" opacity="0.54"/><circle cx="57.50" cy="84.94" r="1.97" fill="#a878ff" opacity="0.54"/><circle cx="75.63" cy="33.04" r="2.01" fill="#e8e4d8" opacity="0.55"/><circle cx="59.10" cy="18.91" r="2.02" fill="#d9c566" opacity="0.55"/><circle cx="31.74" cy="23.68" r="2.03" fill="#b49bd1" opacity="0.55"/><circle cx="16.71" cy="54.81" r="2.03" fill="#e8e4d8" opacity="0.55"/><circle cx="48.57" cy="12.76" r="2.04" fill="#ffb442" opacity="0.55"/><circle cx="72.76" cy="22.58" r="2.05" fill="#8bbf87" opacity="0.56"/><circle cx="20.34" cy="65.11" r="2.06" fill="#39ff7a" opacity="0.56"/><circle cx="39.59" cy="17.54" r="2.06" fill="#e8e4d8" opacity="0.56"/><circle cx="34.95" cy="80.08" r="2.07" fill="#7ab8c4" opacity="0.56"/><circle cx="19.25" cy="44.26" r="2.07" fill="#8bbf87" opacity="0.56"/><circle cx="23.29" cy="34.26" r="2.09" fill="#ffb442" opacity="0.56"/><circle cx="43.70" cy="85.75" r="2.10" fill="#b49bd1" opacity="0.57"/><circle cx="82.15" cy="47.96" r="2.11" fill="#39ff7a" opacity="0.57"/><circle cx="70.40" cy="78.35" r="2.16" fill="#8bbf87" opacity="0.58"/><circle cx="77.38" cy="71.49" r="2.16" fill="#e8b979" opacity="0.58"/><circle cx="26.97" cy="73.96" r="2.17" fill="#39ff7a" opacity="0.58"/><circle cx="85.62" cy="64.93" r="2.23" fill="#a878ff" opacity="0.60"/><circle cx="84.63" cy="38.74" r="2.24" fill="#4ac8d8" opacity="0.60"/><circle cx="62.74" cy="85.47" r="2.30" fill="#e8b979" opacity="0.61"/><circle cx="23.54" cy="24.35" r="2.30" fill="#d9c566" opacity="0.62"/><circle cx="65.58" cy="15.50" r="2.33" fill="#4ac8d8" opacity="0.62"/><circle cx="51.09" cy="82.79" r="2.35" fill="#d9c566" opacity="0.63"/><circle cx="54.65" cy="14.60" r="2.35" fill="#b49bd1" opacity="0.63"/><circle cx="82.54" cy="29.04" r="2.37" fill="#e8b979" opacity="0.63"/><circle cx="17.41" cy="35.42" r="2.37" fill="#39ff7a" opacity="0.63"/><circle cx="16.95" cy="57.08" r="2.37" fill="#e8e4d8" opacity="0.63"/><circle cx="14.91" cy="46.42" r="2.38" fill="#e8b979" opacity="0.63"/><circle cx="84.73" cy="55.01" r="2.39" fill="#39ff7a" opacity="0.64"/><circle cx="22.46" cy="66.33" r="2.39" fill="#a878ff" opacity="0.64"/><circle cx="41.16" cy="17.30" r="2.41" fill="#ffb442" opacity="0.64"/><circle cx="75.09" cy="21.58" r="2.42" fill="#ffb442" opacity="0.65"/><circle cx="35.24" cy="84.77" r="2.44" fill="#4ac8d8" opacity="0.65"/><circle cx="32.04" cy="19.69" r="2.44" fill="#ffb442" opacity="0.65"/><circle cx="27.89" cy="77.82" r="2.50" fill="#b49bd1" opacity="0.66"/><circle cx="71.51" cy="77.79" r="2.52" fill="#e8e4d8" opacity="0.67"/><circle cx="82.70" cy="46.55" r="2.54" fill="#7ab8c4" opacity="0.67"/><circle cx="77.61" cy="70.00" r="2.56" fill="#ffb442" opacity="0.68"/><circle cx="45.28" cy="84.69" r="2.61" fill="#39ff7a" opacity="0.69"/><circle cx="61.27" cy="20.71" r="2.65" fill="#8bbf87" opacity="0.70"/><circle cx="21.22" cy="26.58" r="2.65" fill="#ffb442" opacity="0.70"/><circle cx="80.35" cy="61.61" r="2.67" fill="#a878ff" opacity="0.71"/><circle cx="20.25" cy="59.10" r="2.67" fill="#b49bd1" opacity="0.71"/><circle cx="61.38" cy="85.22" r="2.67" fill="#39ff7a" opacity="0.71"/><circle cx="49.72" cy="13.16" r="2.67" fill="#a878ff" opacity="0.71"/><circle cx="25.13" cy="69.08" r="2.68" fill="#d9c566" opacity="0.71"/><circle cx="17.15" cy="49.01" r="2.70" fill="#d9c566" opacity="0.71"/><circle cx="83.34" cy="37.35" r="2.70" fill="#d9c566" opacity="0.71"/><circle cx="14.77" cy="37.01" r="2.74" fill="#8bbf87" opacity="0.72"/><circle cx="69.57" cy="23.94" r="2.78" fill="#e8b979" opacity="0.73"/><circle cx="77.58" cy="29.55" r="2.79" fill="#7ab8c4" opacity="0.73"/><circle cx="31.58" cy="22.16" r="2.79" fill="#4ac8d8" opacity="0.73"/><circle cx="40.51" cy="15.58" r="2.83" fill="#7ab8c4" opacity="0.74"/><circle cx="35.03" cy="83.38" r="2.84" fill="#e8b979" opacity="0.75"/><circle cx="86.32" cy="54.01" r="2.88" fill="#ffb442" opacity="0.76"/><circle cx="69.43" cy="80.81" r="2.88" fill="#e8a5a5" opacity="0.76"/><circle cx="73.65" cy="69.11" r="2.90" fill="#a878ff" opacity="0.76"/><circle cx="55.24" cy="20.06" r="2.92" fill="#ffb442" opacity="0.77"/><circle cx="50.00" cy="83.30" r="2.93" fill="#7ab8c4" opacity="0.77"/><circle cx="29.57" cy="74.84" r="2.95" fill="#e8a5a5" opacity="0.77"/><circle cx="57.36" cy="79.04" r="2.97" fill="#a878ff" opacity="0.78"/><circle cx="24.05" cy="30.13" r="2.98" fill="#e8e4d8" opacity="0.78"/><circle cx="44.54" cy="81.85" r="3.00" fill="#e8a5a5" opacity="0.79"/><circle cx="82.12" cy="44.84" r="3.01" fill="#e8b979" opacity="0.79"/><circle cx="21.08" cy="41.03" r="3.02" fill="#e8e4d8" opacity="0.79"/><circle cx="19.83" cy="64.05" r="3.02" fill="#8bbf87" opacity="0.79"/><circle cx="45.97" cy="23.12" r="3.04" fill="#4ac8d8" opacity="0.80"/><circle cx="35.49" cy="26.11" r="3.07" fill="#4ac8d8" opacity="0.80"/><circle cx="16.24" cy="52.04" r="3.08" fill="#d9c566" opacity="0.81"/><circle cx="78.33" cy="61.95" r="3.09" fill="#b49bd1" opacity="0.81"/><circle cx="63.02" cy="22.89" r="3.11" fill="#a878ff" opacity="0.81"/><circle cx="29.90" cy="66.33" r="3.13" fill="#39ff7a" opacity="0.82"/><circle cx="78.57" cy="35.85" r="3.15" fill="#d9c566" opacity="0.82"/><circle cx="58.41" cy="72.21" r="3.18" fill="#39ff7a" opacity="0.83"/><circle cx="75.69" cy="52.89" r="3.19" fill="#7ab8c4" opacity="0.83"/><circle cx="68.40" cy="71.57" r="3.19" fill="#7ab8c4" opacity="0.83"/><circle cx="71.66" cy="28.02" r="3.20" fill="#e8e4d8" opacity="0.83"/><circle cx="29.92" cy="34.36" r="3.23" fill="#7ab8c4" opacity="0.84"/><circle cx="27.24" cy="44.59" r="3.25" fill="#e8b979" opacity="0.85"/><circle cx="25.47" cy="55.39" r="3.26" fill="#7ab8c4" opacity="0.85"/><circle cx="52.22" cy="25.99" r="3.26" fill="#7ab8c4" opacity="0.85"/><circle cx="47.12" cy="76.62" r="3.27" fill="#8bbf87" opacity="0.85"/><circle cx="36.74" cy="75.61" r="3.30" fill="#e8a5a5" opacity="0.86"/><circle cx="68.99" cy="61.79" r="3.31" fill="#8bbf87" opacity="0.86"/><circle cx="59.04" cy="32.10" r="3.32" fill="#8bbf87" opacity="0.86"/><circle cx="65.52" cy="38.29" r="3.32" fill="#7ab8c4" opacity="0.86"/><circle cx="72.40" cy="44.85" r="3.32" fill="#8bbf87" opacity="0.86"/><circle cx="33.81" cy="59.34" r="3.33" fill="#e8a5a5" opacity="0.87"/><circle cx="39.91" cy="27.16" r="3.41" fill="#d9c566" opacity="0.89"/><circle cx="47.92" cy="34.50" r="3.43" fill="#e8a5a5" opacity="0.89"/><circle cx="32.87" cy="48.53" r="3.48" fill="#4ac8d8" opacity="0.90"/><circle cx="60.45" cy="64.67" r="3.48" fill="#e8e4d8" opacity="0.90"/><circle cx="61.49" cy="46.21" r="3.51" fill="#b49bd1" opacity="0.91"/><circle cx="39.24" cy="67.85" r="3.53" fill="#8bbf87" opacity="0.91"/><circle cx="55.09" cy="39.59" r="3.54" fill="#8bbf87" opacity="0.92"/><circle cx="56.38" cy="55.91" r="3.54" fill="#4ac8d8" opacity="0.92"/><circle cx="50.56" cy="49.12" r="3.55" fill="#8bbf87" opacity="0.92"/><circle cx="52.15" cy="71.25" r="3.57" fill="#e8b979" opacity="0.92"/><circle cx="68.76" cy="54.07" r="3.58" fill="#4ac8d8" opacity="0.93"/><circle cx="34.34" cy="36.66" r="3.59" fill="#e8e4d8" opacity="0.93"/><circle cx="40.07" cy="53.89" r="3.60" fill="#39ff7a" opacity="0.93"/><circle cx="42.93" cy="42.60" r="3.67" fill="#8bbf87" opacity="0.95"/><circle cx="46.80" cy="61.36" r="3.67" fill="#8bbf87" opacity="0.95"/></g>
<text x="600" y="300" font-family="Space Grotesk, -apple-system, BlinkMacSystemFont, Helvetica, Arial, sans-serif" font-size="96" font-weight="600" letter-spacing="-4" fill="#e8e4d8">AutoSplat<tspan fill="#39ff7a">.</tspan></text>
<text x="602" y="356" font-family="JetBrains Mono, ui-monospace, SF Mono, Menlo, monospace" font-size="29" fill="#828a97">Drone video → 3D Gaussian Splat</text>
<text x="602" y="398" font-family="JetBrains Mono, ui-monospace, SF Mono, Menlo, monospace" font-size="29" fill="#828a97">Local. On your Mac.</text>
</svg>
